<?xml version="1.0" encoding="UTF-8" standalone="no"?>
<!-- Created with Inkscape (http://www.inkscape.org/) -->

<svg
   width="256"
   height="256"
   viewBox="0 0 256 256"
   version="1.1"
   id="svg1"
   xml:space="preserve"
   inkscape:version="1.4.3 (0d15f75042, 2025-12-25)"
   sodipodi:docname="escher.svg"
   inkscape:export-filename="favicon.svg"
   inkscape:export-xdpi="48"
   inkscape:export-ydpi="48"
   xmlns:inkscape="http://www.inkscape.org/namespaces/inkscape"
   xmlns:sodipodi="http://sodipodi.sourceforge.net/DTD/sodipodi-0.dtd"
   xmlns="http://www.w3.org/2000/svg"
   xmlns:svg="http://www.w3.org/2000/svg"><sodipodi:namedview
     id="namedview1"
     pagecolor="#ffffff"
     bordercolor="#000000"
     borderopacity="0.25"
     inkscape:showpageshadow="2"
     inkscape:pageopacity="0.0"
     inkscape:pagecheckerboard="0"
     inkscape:deskcolor="#d1d1d1"
     inkscape:document-units="mm"
     showguides="true"
     inkscape:zoom="1.28"
     inkscape:cx="303.90625"
     inkscape:cy="296.48438"
     inkscape:window-width="1896"
     inkscape:window-height="1030"
     inkscape:window-x="0"
     inkscape:window-y="0"
     inkscape:window-maximized="1"
     inkscape:current-layer="g41"
     inkscape:export-bgcolor="#ffffff00"
     inkscape:lockguides="true"><inkscape:page
       x="0"
       y="0"
       width="256"
       height="256"
       id="page2"
       margin="0"
       bleed="0" /></sodipodi:namedview><defs
     id="defs1" /><g
     inkscape:label="Layer 1"
     inkscape:groupmode="layer"
     id="layer1"
     transform="translate(23.547975,-35.397889)"><rect
       style="fill:#d3c9b6;fill-opacity:1;stroke:none;stroke-width:1.69755;stroke-linecap:round;stroke-linejoin:round;stroke-dasharray:none;stroke-opacity:1"
       id="rect41"
       width="256"
       height="256"
       x="-23.547974"
       y="35.397888" /><g
       id="g41"
       transform="matrix(1.0033129,0,0,1,0.65469882,0.52916667)"
       style="display:inline"><rect
         style="fill:#d3c9b6;fill-opacity:1;stroke:none;stroke-width:1.69475;stroke-linecap:round;stroke-linejoin:round;stroke-opacity:1"
         id="rect1"
         width="228.76695"
         height="229.39758"
         x="-10.783696"
         y="48.299923" /><path
         style="fill:#000000;fill-opacity:0.0542941;stroke:none;stroke-width:1.69475;stroke-linecap:round;stroke-linejoin:round;stroke-dasharray:none;stroke-opacity:1"
         d="m -24.272662,130.69189 13.696775,-24.49589 16.0034014,16.06859 6.2928046,-9.6754 15.370691,19.23833 14.806395,-9.57164 16.56588,3.5299 12.727041,-6.80696 22.21767,11.62567 -23.97974,23.59131 -93.61558,20.52442 z"
         id="path25"
         sodipodi:nodetypes="cccccccccccc" /><path
         style="fill:#a1b483;fill-opacity:1;stroke:none;stroke-width:2.1069;stroke-linecap:round;stroke-linejoin:round;stroke-dasharray:none;stroke-opacity:1"
         d="M -24.53133,164.76493 C 82.541736,151.41547 128.60823,140.58204 231.32909,150.40512 l -0.11789,140.65355 -255.715821,0.004 z"
         id="path41"
         sodipodi:nodetypes="ccccc" /><ellipse
         style="fill:#ffe3c1;fill-opacity:1;stroke:none;stroke-width:2.2302;stroke-linecap:round;stroke-linejoin:round;stroke-opacity:1"
         id="path1"
         cx="31.21575"
         cy="85.502312"
         rx="18.247023"
         ry="17.950062" /><circle
         style="fill:#e53030;fill-opacity:1;stroke:none;stroke-width:1.97345;stroke-linecap:round;stroke-linejoin:round;stroke-opacity:1"
         id="path1-2"
         cx="31.092144"
         cy="85.472725"
         r="16.014473" /><path
         style="fill:#310b18;fill-opacity:1;stroke:none;stroke-width:1.75247;stroke-linecap:round;stroke-linejoin:round;stroke-opacity:1"
         d="m 174.01623,152.06958 -0.85329,-48.06776 4.26638,1.1377 0.85327,49.20547 z"
         id="path29" /><path
         style="fill:#48651f;fill-opacity:1;stroke:none;stroke-width:1.51198;stroke-linecap:round;stroke-linejoin:round;stroke-opacity:1"
         d="m 179.86076,128.21486 -10.27675,-2.10947 3.33995,5.62527 -3.33995,3.04701 -3.85378,-3.04701 -1.28459,3.98455 -4.62453,-3.2814 -4.36762,1.87509 -5.65221,-7.50035 2.56918,-6.7972 -2.05534,-4.68772 -6.16605,-3.75016 0.51383,-6.79721 7.19372,-1.6407 -3.85377,-3.515793 -8.22139,-4.453336 1.5415,-5.390877 7.96449,-0.234387 2.8261,0.234387 -1.02769,-1.875089 -4.3676,-2.578246 4.88144,-2.578246 5.13838,3.515791 -7.70756,-6.094036 v -4.218949 l 1.2846,-8.437896 c 0,0 1.79843,-2.109473 3.85377,-0.468772 2.05535,1.640704 5.65222,5.156493 5.65222,5.156493 l 4.88145,-6.562809 -5.13837,-8.906668 5.74484,-4.592256 20.05666,-1.826228 17.16447,3.508703 c 0,0 3.5363,3.847272 3.79321,4.784816 0.25692,0.937543 -1.28459,5.625264 -1.28459,5.625264 l -4.88145,4.687719 c 0,0 4.88145,4.218948 5.90913,4.453336 1.02768,0.234386 4.1107,-3.047018 4.1107,-3.047018 h 2.31228 l 0.77075,8.67228 -4.36762,9.609827 -2.82611,5.625263 5.39529,6.328427 -3.08302,8.90668 -1.79844,4.92209 h -7.19371 l 6.67988,2.81264 c 0,0 4.36762,3.75018 4.1107,5.1565 -0.25692,1.40631 -3.59687,8.20351 -3.59687,8.20351 l -6.42296,1.6407 -10.27675,-2.34387 -3.33994,0.46877 -0.51382,3.04703 -1.79845,-0.46879 z"
         id="path30"
         sodipodi:nodetypes="ccccccccccccccccccccccccccsccccccsccsccccccccccsccccccc" /><path
         style="fill:#7ceafc;fill-opacity:1;stroke:none;stroke-width:1.75247;stroke-linecap:round;stroke-linejoin:round;stroke-opacity:1"
         d="m 30.675245,195.91233 -0.853271,-40.38832 71.390596,-36.97521 38.68177,11.66142 -0.28442,67.12423 z"
         id="path2" /><path
         style="fill:#2c559c;fill-opacity:1;stroke:none;stroke-width:1.75247;stroke-linecap:round;stroke-linejoin:round;stroke-opacity:1"
         d="m 139.7138,197.31058 0.31507,-67.14202 14.71595,-8.16501 -0.0604,65.37604 z"
         id="path3"
         sodipodi:nodetypes="ccccc" /><path
         style="fill:#4aa2cd;fill-opacity:1;stroke:none;stroke-width:1.75247;stroke-linecap:round;stroke-linejoin:round;stroke-opacity:1"
         d="m 143.09991,195.11075 47.41089,0.058 0.20726,-40.37042 -47.48596,-9.29412 z"
         id="path4"
         sodipodi:nodetypes="ccccc" /><path
         style="fill:#274eac;fill-opacity:1;stroke:none;stroke-width:1.75247;stroke-linecap:round;stroke-linejoin:round;stroke-opacity:1"
         d="m 190.50393,195.16747 9.64658,-8.34173 -0.008,-36.58873 -9.37813,4.8266 z"
         id="path5"
         sodipodi:nodetypes="ccccc" /><path
         style="fill:#300d48;fill-opacity:1;stroke:none;stroke-width:1.75247;stroke-linecap:round;stroke-linejoin:round;stroke-opacity:1"
         d="m 143.15092,143.47761 11.77333,-8.02846 54.86032,13.07493 -9.7344,8.99092 z"
         id="path6"
         sodipodi:nodetypes="ccccc" /><path
         style="fill:#4aa2cd;fill-opacity:1;stroke:none;stroke-width:1.83664;stroke-linecap:round;stroke-linejoin:round;stroke-opacity:1"
         d="m 44.317923,188.72925 -0.301268,-33.43181 15.678628,-0.20402 -0.02537,33.63583 z"
         id="path7"
         sodipodi:nodetypes="ccccc" /><path
         style="fill:#2b6f91;fill-opacity:1;stroke:none;stroke-width:1.63785;stroke-linecap:round;stroke-linejoin:round;stroke-opacity:1"
         d="m 45.349592,187.61715 -0.258124,-31.03023 13.433298,-0.18938 -0.02173,31.21961 z"
         id="path7-1"
         sodipodi:nodetypes="ccccc" /><path
         style="fill:#3b3b3b;fill-opacity:1;stroke:none;stroke-width:1.75247;stroke-linecap:round;stroke-linejoin:round;stroke-opacity:1"
         d="m 61.865502,188.71273 -2.49279,1.29203 0.0711,2.44071 -1.37425,0.49778 0.105949,2.17745 -1.167479,0.49886 0.167243,2.2052 -1.265617,0.7217 0.01167,1.90504 5.896401,-4.07848 z"
         id="path8"
         sodipodi:nodetypes="ccccccccccc" /><path
         style="fill:#745945;fill-opacity:1;stroke:none;stroke-width:1.75247;stroke-linecap:round;stroke-linejoin:round;stroke-opacity:1"
         d="m 42.206586,188.42883 -2.522609,1.41824 0.02513,2.29383 -1.401731,0.71507 0.166827,2.18642 -1.466738,0.55613 0.07059,2.18233 -1.307273,0.70391 0.10056,1.81007 20.038047,0.18871 v -1.89843 l 1.26186,-0.74218 -0.159834,-2.20331 1.167217,-0.53478 -0.08783,-2.20672 1.401207,-0.42953 -0.142056,-2.45472 2.472854,-1.33117 z"
         id="path9"
         sodipodi:nodetypes="ccccccccccccccccccc" /><path
         style="fill:#300d48;fill-opacity:1;stroke:none;stroke-width:1.75247;stroke-linecap:round;stroke-linejoin:round;stroke-opacity:1"
         d="m 160.37292,121.88783 -14.50565,8.39052 -44.37026,-13.9368 16.49663,-7.82169 z"
         id="path10" /><path
         style="fill:#90133e;fill-opacity:1;stroke:none;stroke-width:1.74277;stroke-linecap:round;stroke-linejoin:round;stroke-opacity:1"
         d="m 62.480539,136.24056 0.05028,-21.71578 9.012707,-0.0177 0.01778,17.03534 z"
         id="path11"
         sodipodi:nodetypes="ccccc" /><path
         style="fill:#63293d;fill-opacity:1;stroke:none;stroke-width:1.75247;stroke-linecap:round;stroke-linejoin:round;stroke-opacity:1"
         d="m 74.907263,113.2722 -3.061387,1.2385 0.076,16.90099 2.9665,-1.81006 z"
         id="path12"
         sodipodi:nodetypes="ccccc" /><path
         style="fill:#90133e;fill-opacity:1;stroke:none;stroke-width:1.75247;stroke-linecap:round;stroke-linejoin:round;stroke-opacity:1"
         d="m 60.860344,111.75235 -0.0012,2.36564 11.100721,0.033 -0.03808,-2.3987 z"
         id="path13"
         sodipodi:nodetypes="ccccc" /><path
         style="fill:#552c3a;fill-opacity:1;stroke:none;stroke-width:1.75247;stroke-linecap:round;stroke-linejoin:round;stroke-opacity:1"
         d="m 76.523097,109.97391 -4.360983,1.73425 0.03068,2.37351 4.359082,-1.82968 z"
         id="path14"
         sodipodi:nodetypes="ccccc" /><path
         style="fill:#a65873;fill-opacity:1;stroke:none;stroke-width:1.75247;stroke-linecap:round;stroke-linejoin:round;stroke-opacity:1"
         d="m 60.829332,111.4704 5.902761,-1.84521 9.779092,0.13191 -4.535154,1.7066 z"
         id="path15"
         sodipodi:nodetypes="ccccc" /><path
         style="fill:#0d1029;fill-opacity:1;stroke:none;stroke-width:1.75247;stroke-linecap:round;stroke-linejoin:round;stroke-opacity:1"
         d="m 72.627895,144.57366 56.173885,0.56885 0.28442,45.22354 -56.600517,-0.85328 z"
         id="path16" /><path
         style="fill:#cac0f4;fill-opacity:1;stroke:none;stroke-width:1.75247;stroke-linecap:round;stroke-linejoin:round;stroke-opacity:1"
         d="m 75.131792,147.59117 51.277578,-0.0122 0.0747,39.73336 -51.062562,-0.49566 z"
         id="path17"
         sodipodi:nodetypes="ccccc" /><path
         style="fill:#4d4d4d;fill-opacity:1;stroke:none;stroke-width:1.75247;stroke-linecap:round;stroke-linejoin:round;stroke-opacity:1"
         d="m 193.28251,192.97743 17.96042,-0.21942 5.50464,-5.10261 -4.26637,-5.97293 -12.23049,0.81771 -2e-5,4.36211 z"
         id="path18"
         sodipodi:nodetypes="ccccccc" /><path
         style="fill:#906eaa;fill-opacity:1;stroke:none;stroke-width:1.75247;stroke-linecap:round;stroke-linejoin:round;stroke-dasharray:none;stroke-opacity:1"
         d="m 75.347687,177.35073 51.094703,0.0985 0.0279,9.87862 -51.053888,-0.51102 z"
         id="path44"
         sodipodi:nodetypes="ccccc" /><path
         style="fill:#9f493b;fill-opacity:1;stroke:none;stroke-width:1.75247;stroke-linecap:round;stroke-linejoin:round;stroke-opacity:1"
         d="m 23.991265,156.80394 1.066594,1.63544 76.083611,-39.96169 -0.0356,-2.06208 z"
         id="path19"
         sodipodi:nodetypes="ccccc" /><path
         style="fill:#9f493b;fill-opacity:1;stroke:none;stroke-width:1.75247;stroke-linecap:round;stroke-linejoin:round;stroke-opacity:1"
         d="m 101.09731,116.36692 0.0861,2.08795 44.74451,13.42182 0.071,-1.52879 z"
         id="path19-7"
         sodipodi:nodetypes="ccccc" /><path
         style="fill:#9f493b;fill-opacity:1;stroke:none;stroke-width:1.75247;stroke-linecap:round;stroke-linejoin:round;stroke-opacity:1"
         d="m 143.1774,143.43292 0.0861,2.08796 56.93639,13.63105 0.005,-1.6461 z"
         id="path19-7-3"
         sodipodi:nodetypes="ccccc" /><path
         style="fill:#612d24;fill-opacity:1;stroke:none;stroke-width:1.75247;stroke-linecap:round;stroke-linejoin:round;stroke-opacity:1"
         d="m 200.2056,157.48822 -0.0206,1.67908 9.59454,-9.30914 0.004,-1.28158 z"
         id="path19-7-3-2"
         sodipodi:nodetypes="ccccc" /><path
         style="fill:#612d24;fill-opacity:1;stroke:none;stroke-width:1.75247;stroke-linecap:round;stroke-linejoin:round;stroke-opacity:1"
         d="m 146.15862,130.22756 -0.0205,1.6791 14.27898,-8.87339 0.0208,-1.11397 z"
         id="path19-7-3-2-6"
         sodipodi:nodetypes="ccccc" /><path
         style="fill:#0d1029;fill-opacity:1;stroke:none;stroke-width:1.75247;stroke-linecap:round;stroke-linejoin:round;stroke-opacity:1"
         d="m 77.186815,146.32396 -0.192489,42.08709 h 0.853272 l 0.192491,-42.22931 z"
         id="path20"
         sodipodi:nodetypes="ccccc" /><path
         style="fill:#0d1029;fill-opacity:1;stroke:none;stroke-width:1.75247;stroke-linecap:round;stroke-linejoin:round;stroke-opacity:1"
         d="m 73.743287,149.18299 0.142213,1.1377 53.56526,-0.19249 -0.14221,-1.06659 z"
         id="path22"
         sodipodi:nodetypes="ccccc" /><path
         style="fill:#0d1029;fill-opacity:1;stroke:none;stroke-width:1.75247;stroke-linecap:round;stroke-linejoin:round;stroke-opacity:1"
         d="m 74.027713,184.44577 53.750597,0.32606 -0.14221,1.1377 -53.963919,-0.53938 z"
         id="path23"
         sodipodi:nodetypes="ccccc" /><g
         id="g43"
         transform="translate(6.6584814,-6.5170819)"><g
           id="g42"><rect
             style="display:inline;fill:#5c3a2b;fill-opacity:1;stroke:none;stroke-width:2.0299;stroke-linecap:round;stroke-linejoin:round;stroke-opacity:1"
             id="rect30"
             width="22.924055"
             height="23"
             x="85.334084"
             y="157.8858" /><rect
             style="display:inline;fill:#ffffff;fill-opacity:1;stroke:none;stroke-width:2.0299;stroke-linecap:round;stroke-linejoin:round;stroke-opacity:1"
             id="rect31"
             width="18.951111"
             height="18.867315"
             x="87.490929"
             y="160.01733" /></g></g><path
         style="fill:#000000;fill-opacity:1;stroke:none;stroke-width:1.75247;stroke-linecap:round;stroke-linejoin:round;stroke-opacity:1"
         d="m 108.88998,180.77621 -0.43993,3.49446 1.10614,0.0502 0.3771,-3.53215 z"
         id="path34"
         sodipodi:nodetypes="ccccc" /><path
         style="fill:#000000;fill-opacity:1;stroke:none;stroke-width:1.75247;stroke-linecap:round;stroke-linejoin:round;stroke-opacity:1"
         d="m 110.91263,180.92961 -0.15997,1.8132 0.71016,0.0218 0.20381,-0.30613 -0.0608,-1.49323 z"
         id="path35"
         sodipodi:nodetypes="cccccc" /><path
         style="fill:#000000;fill-opacity:1;stroke:none;stroke-width:1.75247;stroke-linecap:round;stroke-linejoin:round;stroke-opacity:1"
         d="m 124.46638,180.98811 0.26335,3.41166 1.11656,0.0342 0.12569,-0.70391 -0.52793,-2.81567 z"
         id="path36"
         sodipodi:nodetypes="cccccc" /><path
         style="fill:#212121;fill-opacity:1;stroke:none;stroke-width:1.7427;stroke-linecap:round;stroke-linejoin:round;stroke-opacity:1"
         d="m 105.50868,177.77201 0.0994,3.11735 20.87795,0.33434 -0.0164,-3.36299 z"
         id="path32"
         sodipodi:nodetypes="ccccc" /><path
         style="fill:#676767;fill-opacity:1;stroke:none;stroke-width:1.7417;stroke-linecap:round;stroke-linejoin:round;stroke-opacity:1"
         d="m 105.50868,177.77201 3.27781,-2.36316 17.68034,0.10057 v 2.41343 z"
         id="path33"
         sodipodi:nodetypes="ccccc" /><path
         style="fill:#0d1029;fill-opacity:1;stroke:none;stroke-width:1.75247;stroke-linecap:round;stroke-linejoin:round;stroke-opacity:1"
         d="m 123.24902,146.11926 -0.10919,42.79312 h 0.85327 l 0.39361,-43.21975 z"
         id="path21"
         sodipodi:nodetypes="ccccc" /><path
         style="fill:#ffffff;fill-opacity:1;stroke:none;stroke-width:1.75247;stroke-linecap:round;stroke-linejoin:round;stroke-opacity:1"
         d="m 53.3436,60.537127 c 0.765286,-1.167056 1.32543,-2.516465 4.424609,-1.608951 2.492776,-1.613071 4.899002,-4.610959 7.642512,-2.212305 9.471499,-12.372918 14.738389,-5.224352 20.614659,-0.905033 5.74784,-0.823546 5.99922,0.667211 6.83803,1.910628 -12.86262,3.379794 -26.38173,2.603321 -39.51981,2.815661 z"
         id="path37"
         sodipodi:nodetypes="cccccc" /><path
         style="fill:#ffffff;fill-opacity:1;stroke:none;stroke-width:1.84605;stroke-linecap:round;stroke-linejoin:round;stroke-opacity:1"
         d="m 103.24473,104.31384 c 2.51816,0.0232 -1.08994,-2.50148 -2.02488,-3.06026 -5.467783,-3.26789 -7.801586,-2.45978 -9.021585,-0.35284 -0.151538,-0.76915 0.453191,-1.80604 -5.365426,-0.56885 C 87.057542,96.016747 81.81696,98.26855 78.6269,98.0565 78.1733,96.603981 77.393027,95.376591 73.419282,96.349948 72.718129,93.489521 69.931958,94.387053 67.896052,93.932339 65.189775,89.891977 61.540516,92.366738 58.26985,92.225789 47.903033,83.33583 39.531857,92.108925 39.806479,94.501188 c -2.903132,-1.139865 -5.670603,-0.323627 -8.363746,1.564335 -2.229439,-0.517665 -3.7141,0.139236 -4.260778,2.275397 L 21.500917,96.918797 C 18.319382,94.796691 15.545435,90.97576 10.770069,95.496674 5.8586381,92.391597 1.5412076,105.43714 5.7586848,104.72398 37.558254,101.12722 70.677915,104.09517 103.24473,104.31384 Z"
         id="path38"
         sodipodi:nodetypes="csccccccccccccc" /><path
         style="fill:#ffffff;fill-opacity:1;stroke:none;stroke-width:1.37409;stroke-linecap:round;stroke-linejoin:round;stroke-opacity:1"
         d="m 40.137816,116.20672 c -2.668576,-0.5018 -5.440578,-1.18969 -6.580387,1.05907 -0.626216,-1.38897 -2.553053,-1.8779 -4.517046,-2.34112 -2.98349,0.11703 -5.873975,1.73216 -7.413767,2.71504 -6.208091,-1.17905 -16.2313073,2.8383 -14.3328228,3.04588 1.7018406,0.18607 5.5348368,0.10806 8.3659188,-0.39633 6.036841,-0.75998 25.097279,-1.37321 25.760722,-1.07253 0.930036,0.4215 2.291334,-2.42179 -1.282618,-3.01001 z"
         id="path40"
         sodipodi:nodetypes="ccccscsc" /><path
         style="fill:#ffffff;fill-opacity:1;stroke:none;stroke-width:1.75247;stroke-linecap:round;stroke-linejoin:round;stroke-opacity:1"
         d="m 123.44699,79.039492 c -3.45338,-0.89085 -6.86686,-1.84922 -11.5192,-0.71105 -7.01581,-2.59669 -14.031623,-1.75472 -21.047439,-2.41762 -1.809199,0.9612 7.768226,4.41553 14.505669,4.693 -1.31494,0.42854 -2.05066,0.9462 -2.13319,1.56435 4.27191,0.5711 8.27083,0.64172 10.95035,-1.70656 3.2624,1.04786 6.26037,0.77357 9.24381,0.42665 1.35941,-0.61625 0.67562,-1.23252 0,-1.84877 z"
         id="path39"
         sodipodi:nodetypes="cccccccc" /><path
         style="fill:#5f4431;fill-opacity:1;stroke:none;stroke-width:1.75247;stroke-linecap:round;stroke-linejoin:round;stroke-opacity:1"
         d="m 40.095512,190.31012 -0.0037,1.66586 18.937089,0.0274 -0.0253,-1.70345 z"
         id="path43"
         sodipodi:nodetypes="ccccc" /><path
         style="fill:#5f4431;fill-opacity:1;stroke:none;stroke-width:1.75247;stroke-linecap:round;stroke-linejoin:round;stroke-opacity:1"
         d="m 38.899228,193.15877 -0.0037,1.66587 18.937089,0.0274 -0.0253,-1.70345 z"
         id="path43-6"
         sodipodi:nodetypes="ccccc" /><path
         style="fill:#5f4431;fill-opacity:1;stroke:none;stroke-width:1.75247;stroke-linecap:round;stroke-linejoin:round;stroke-opacity:1"
         d="m 37.622563,195.97182 -0.0037,1.66586 18.937088,0.0274 -0.0253,-1.70345 z"
         id="path43-6-1"
         sodipodi:nodetypes="ccccc" /><path
         style="fill:#5f4431;fill-opacity:1;stroke:none;stroke-width:1.60615;stroke-linecap:round;stroke-linejoin:round;stroke-opacity:1"
         d="m 36.412987,198.78798 -0.0037,1.3993 18.937088,0.023 -0.0253,-1.43087 z"
         id="path43-6-1-6"
         sodipodi:nodetypes="ccccc" /><path
         style="fill:#9c9068;fill-opacity:1;stroke:none;stroke-width:2.07501;stroke-linecap:round;stroke-linejoin:round;stroke-dasharray:none;stroke-opacity:1"
         d="m 35.071054,201.19328 c 6.05574,-0.18764 20.298888,0.21277 20.298888,0.21277 -4.222808,5.65156 -7.246246,11.53274 44.460604,23.5726 51.706854,12.03986 59.506154,43.11734 58.383344,67.14833 l -96.231379,0.39806 C 67.058459,270.20148 75.946178,252.17501 53.469149,237.36948 30.992121,222.56396 22.76007,208.9898 35.071054,201.19328 Z"
         id="path45"
         sodipodi:nodetypes="cczcczc" /><path
         style="fill:#44621a;fill-opacity:1;stroke:none;stroke-width:1.51198;stroke-linecap:round;stroke-linejoin:round;stroke-dasharray:none;stroke-opacity:1"
         d="m 170.23342,102.87408 -3.76181,-2.67168 -14.31769,-0.892483 -1.35666,-5.4374 8.13921,1.242815 -1.6126,-5.581171 10.73665,5.502349 5.07009,2.022599 -5.07009,-3.918788 -4.34578,-4.171613 -6.67371,-7.604262 1.54859,-5.6029 4.69832,5.02583 3.80685,5.147429 -1.20716,-6.194214 0.99857,-0.789147 1.17432,5.719236 1.81075,3.918789 3.98364,4.803678 c 0,0 2.77646,0.884888 1.93145,-0.884888 -0.84502,-1.769775 -6.15653,-9.354528 -7.24297,-11.756368 -1.08646,-2.401837 -1.93147,-6.320627 -1.93147,-6.320627 l 2.41433,-5.309326 3.74221,10.618654 3.38005,6.573451 -3.98363,-25.029683 16.41741,-2.149012 -7.91123,9.36137 0.3061,15.289074 -0.48287,6.699865 c 3.08273,-2.112522 10.31013,-25.154383 10.31013,-25.154383 l 7.31445,0.756762 -10.62302,22.627847 10.5023,-4.803677 6.15655,-4.930091 2.41432,-1.137711 0.24143,1.643362 -5.19081,10.87148 -15.21025,6.067802 11.8302,-1.769776 -1.93146,2.907487 -6.39351,0.142557 -4.95382,3.270584 -6.28191,1.46907 8.39197,-0.10761 15.07834,-2.446327 -2.09868,10.092587 -16.8968,-3.39126 4.58302,4.46996 8.35764,4.87841 -2.01947,10.06485 -7.07885,-8.08754 -4.21387,3.66668 -2.73439,-8.41612 -1.30386,4.55696 -1.08644,8.91209 -3.0718,-0.65732 -0.11082,-8.61029 -5.52601,-3.40173 -3.88936,9.61578 -4.423,-2.12937 0.59526,-7.65745 -9.50977,-2.44284 0.80954,-4.45877 12.98593,-3.0936 z"
         id="path46"
         sodipodi:nodetypes="cccccccccccccccccccssccccccccccccccccccccccccccccccccccccccccccccc" /></g><circle
       style="display:none;fill:#ffffff;fill-opacity:0.146416;stroke:none;stroke-width:1.69274;stroke-linecap:round;stroke-linejoin:round;stroke-dasharray:none;stroke-opacity:1"
       id="path24"
       cx="104.45202"
       cy="163.39789"
       r="128"
       sodipodi:insensitive="true" /></g></svg>
